<svg height='300px' width='300px'  fill="#000000" xmlns="http://www.w3.org/2000/svg" xmlns:xlink="http://www.w3.org/1999/xlink" version="1.1" x="0px" y="0px" viewBox="0 0 100 100" enable-background="new 0 0 100 100" xml:space="preserve"><g><path fill="#000000" d="M95.401,4.61c-1.264-1.264-2.457-2.458-4.037-2.734c-0.23-0.042-0.468-0.065-0.713-0.065   c-1.56,0-3.176,0.889-5.087,2.8l-3.438,3.45c-0.001,0.001-0.002,0.001-0.003,0.002L7.876,82.311   c-0.001,0.001-0.001,0.002-0.002,0.003c-0.078,0.079-0.141,0.173-0.184,0.277l-0.001,0.002c0,0.001,0,0.002-0.001,0.003   L3.52,92.615c-0.001,0.001-0.001,0.002-0.002,0.004l-2.001,4.972c0,0.001,0,0.001,0,0.002c-0.041,0.104-0.063,0.215-0.061,0.329   c0.001,0.113,0.025,0.224,0.069,0.326c0,0.001,0,0.002,0,0.003c0.041,0.094,0.1,0.173,0.166,0.243   c0.018,0.02,0.039,0.034,0.059,0.052c0.061,0.054,0.126,0.097,0.199,0.131c0.015,0.007,0.025,0.021,0.042,0.027   C2,98.708,2.012,98.707,2.022,98.71c0.091,0.033,0.186,0.056,0.285,0.056c0.001,0,0.002,0.001,0.003,0.001h0h0   c0.001,0,0.001-0.001,0.002-0.001c0.105,0,0.206-0.025,0.302-0.063c0.011-0.005,0.023-0.003,0.035-0.008l14.783-6.38   c0.027-0.012,0.045-0.034,0.07-0.049c0.059-0.032,0.116-0.066,0.165-0.111c0.01-0.009,0.022-0.012,0.031-0.021l63.478-63.466   l10.766-10.776l3.459-3.447C100.3,9.533,97.814,7.035,95.401,4.61z M7.383,94.789l-2.061-2.053l3.731-8.969l3.203-0.023v3.088   c0,0.473,0.383,0.855,0.856,0.855h3.126v3.279L7.383,94.789z M17.942,86.876c0.001-0.016,0.009-0.028,0.009-0.044   c0-0.473-0.383-0.855-0.856-0.855h-3.126v-3.094c0-0.001,0-0.002,0-0.003s0-0.002,0-0.003c0-0.063-0.023-0.117-0.037-0.175   c-0.011-0.052-0.012-0.107-0.032-0.154c-0.022-0.052-0.062-0.092-0.093-0.138c-0.031-0.045-0.053-0.096-0.091-0.134   c-0.043-0.042-0.1-0.068-0.151-0.102c-0.041-0.026-0.075-0.062-0.121-0.08c-0.102-0.044-0.214-0.067-0.332-0.067   c-0.002,0-0.004,0-0.006,0l-2.544,0.019L71.947,20.65l7.409,7.408L17.951,89.463V86.92C17.951,86.904,17.943,86.892,17.942,86.876z    M73.157,19.441l2.505-2.502l7.403,7.41l-2.505,2.506L73.157,19.441z M76.431,16.17l1.38-1.378l7.411,7.401l-1.381,1.381   L76.431,16.17z M78.587,14.017l1.381-1.38l7.408,7.402l-1.378,1.378L78.587,14.017z M80.743,11.862l1.984-1.982l7.403,7.404   l-1.982,1.983L80.743,11.862z"></path></g></svg>