<?xml version="1.0" standalone="no"?>
<!DOCTYPE svg PUBLIC "-//W3C//DTD SVG 20010904//EN"
 "http://www.w3.org/TR/2001/REC-SVG-20010904/DTD/svg10.dtd">
<svg version="1.0" xmlns="http://www.w3.org/2000/svg"
 width="90.000000pt" height="90.000000pt" viewBox="0 0 90.000000 90.000000"
 preserveAspectRatio="xMidYMid meet">

<g transform="translate(0.000000,90.000000) scale(0.100000,-0.100000)"
fill="#000000" stroke="none">
<path d="M630 781 l-35 -28 77 -77 78 -77 30 33 c16 18 30 42 30 53 0 26 -99
125 -126 125 -11 0 -35 -13 -54 -29z"/>
<path d="M357 512 c-176 -176 -178 -178 -153 -190 15 -7 26 -20 26 -31 0 -36
12 -50 47 -57 23 -4 37 -14 43 -30 9 -22 21 -11 189 159 l180 182 -72 73 c-39
39 -74 72 -77 72 -3 0 -85 -80 -183 -178z"/>
<path d="M105 149 c-9 -28 -15 -53 -12 -56 7 -7 107 26 107 36 0 9 -63 71 -72
71 -4 0 -14 -23 -23 -51z"/>
</g>
</svg>
